<svg xmlns="http://www.w3.org/2000/svg" viewBox="0 0 900 1400" fill="none">
  <defs>
    <linearGradient id="base" x1="0" y1="0" x2="900" y2="1400" gradientUnits="userSpaceOnUse">
      <stop stop-color="#F0F6F4"/>
      <stop offset=".52" stop-color="#F8FAF9"/>
      <stop offset="1" stop-color="#F3F6F7"/>
    </linearGradient>
    <linearGradient id="edge" x1="900" y1="0" x2="440" y2="780" gradientUnits="userSpaceOnUse">
      <stop stop-color="#4D938A" stop-opacity=".13"/>
      <stop offset="1" stop-color="#4D938A" stop-opacity="0"/>
    </linearGradient>
    <linearGradient id="foot" x1="0" y1="1400" x2="510" y2="940" gradientUnits="userSpaceOnUse">
      <stop stop-color="#CF896E" stop-opacity=".11"/>
      <stop offset="1" stop-color="#CF896E" stop-opacity="0"/>
    </linearGradient>
    <pattern id="grid" width="48" height="48" patternUnits="userSpaceOnUse">
      <path d="M48 0H0V48" stroke="#315E5A" stroke-opacity=".045"/>
    </pattern>
  </defs>
  <path fill="url(#base)" d="M0 0h900v1400H0z"/>
  <path fill="url(#grid)" d="M0 0h900v1400H0z"/>
  <path fill="url(#edge)" d="M900 0v862c-149-53-270-153-331-285-59-128-54-268 9-420 24-58 58-111 102-157h220Z"/>
  <path fill="url(#foot)" d="M0 1400v-373c138 31 241 95 325 189 54 61 128 122 232 184H0Z"/>
  <g stroke="#39766F" stroke-opacity=".13" stroke-width="1.2">
    <path d="M641-100c-62 117-72 237-30 359 38 110 107 183 207 220 91 34 143 98 157 193 12 85-5 183-51 294"/>
    <path d="M684-100c-62 117-72 237-30 359 38 110 107 183 207 220 91 34 143 98 157 193 12 85-5 183-51 294"/>
    <path d="M727-100c-62 117-72 237-30 359 38 110 107 183 207 220 91 34 143 98 157 193 12 85-5 183-51 294"/>
    <path d="M-90 1115c165-40 302-4 410 107 71 73 142 131 246 171"/>
    <path d="M-90 1166c165-40 302-4 410 107 71 73 142 131 246 171"/>
    <path d="M-90 1217c165-40 302-4 410 107 71 73 142 131 246 171"/>
  </g>
  <g fill="#39766F" fill-opacity=".27">
    <circle cx="764" cy="92" r="3"/><circle cx="796" cy="92" r="3"/><circle cx="828" cy="92" r="3"/>
    <circle cx="764" cy="124" r="3"/><circle cx="796" cy="124" r="3"/><circle cx="828" cy="124" r="3"/>
    <circle cx="764" cy="156" r="3"/><circle cx="796" cy="156" r="3"/><circle cx="828" cy="156" r="3"/>
  </g>
  <path d="M824 264v88m-44-44h88" stroke="#39766F" stroke-opacity=".2"/>
</svg>
